<svg enable-background="new 0 0 27.263 36" height="36" viewBox="0 0 27.263 36" width="27.263" xmlns="http://www.w3.org/2000/svg"><path d="m19.871 17.667-9.484-8.637c-.168-.153-.412-.206-.63-.133-.221.071-.382.254-.423.477l-2.248 12.462c-.046.247.067.495.284.628s.494.125.702-.019l3.123-2.17 2.458 6.473c.11.323.468.497.799.388l3.232-1.054c.331-.106.51-.457.399-.778l-2.459-6.472 3.831-.101c.256-.005.482-.164.573-.396.091-.235.028-.499-.157-.668zm-5.131-.044c-.2.005-.386.102-.5.263-.116.159-.145.363-.083.548l2.529 6.677-2.037.664-2.528-6.678c-.063-.184-.213-.329-.403-.388-.19-.063-.398-.03-.562.082l-2.56 1.779 1.779-9.867 7.508 6.838zm0 0" fill="#fff"/></svg>